PathFileType	3	(X/Y/Z)	D:\Jess\PFP\Labelled\PA17\20250829\SRRun01.trc
DataRate	CameraRate	NumFrames	NumMarkers	Units	OrigDataRate	OrigDataStartFrame	OrigNumFrames
250.0	250.0	4	33	mm	250.0	35312	2501
Frame#	Time	C7			T10			CLAV			LSHO			RSHO			LASIS			RASIS			LPSIS			RPSIS			LILCR			RILCR			LGTR			LTHI			LLTHI			LLEP			LPSH			LLSH			LDSH			LLMAL			LTOE			L5TH			LHEE			RGTR			RTHI			RLTHI			RLEP			RPSH			RLSH			RDSH			RLMAL			RTOE			R5TH			RHEE			
		X1	Y1	Z1	X2	Y2	Z2	X3	Y3	Z3	X4	Y4	Z4	X5	Y5	Z5	X6	Y6	Z6	X7	Y7	Z7	X8	Y8	Z8	X9	Y9	Z9	X10	Y10	Z10	X11	Y11	Z11	X12	Y12	Z12	X13	Y13	Z13	X14	Y14	Z14	X15	Y15	Z15	X16	Y16	Z16	X17	Y17	Z17	X18	Y18	Z18	X19	Y19	Z19	X20	Y20	Z20	X21	Y21	Z21	X22	Y22	Z22	X23	Y23	Z23	X24	Y24	Z24	X25	Y25	Z25	X26	Y26	Z26	X27	Y27	Z27	X28	Y28	Z28	X29	Y29	Z29	X30	Y30	Z30	X31	Y31	Z31	X32	Y32	Z32	X33	Y33	Z33	

313	141.244	811.7175011686169	1520.720393046892	-1116.953005102737	785.1105900998332	1293.827287472676	-1052.019864990973	844.1625624916273	1427.310014405583	-1252.182625863763	666.7911034843722	1508.863575027932	-1211.281222030375	989.7219202235659	1478.324423634178	-1161.33653508353	709.2048420475502	982.9333534721111	-1250.076522664724	936.8554420903241	1018.192836706008	-1222.924177314664	778.7720664936511	1081.810382177712	-1046.469072373411	814.7803624461517	1083.332702543275	-1042.006091275711	654.0121111500805	1077.034844813352	-1206.408416470585	970.1455717905887	1108.464240463982	-1146.583480608602	629.5731080337168	931.0659570152666	-1164.238814184848	726.5459941645231	723.2026594773794	-1191.464448872191	658.2163316238206	679.2990691015185	-1034.723151545093	683.0015787818893	526.3316431308123	-963.0319337920903	737.700546819457	441.6821840496312	-977.7549397058318	683.436598521545	375.6814617493862	-829.4125971435433	730.8287981412643	273.8297302334487	-840.0385000368511	705.0417520590636	208.8353372722373	-737.0679143784166	701.6446337675286	70.53381131864879	-791.570464886434	677.709959936466	75.76338849462833	-750.6374724901515	753.2305501299477	233.71639960287	-678.2868727702438	1020.975693972124	970.9796564483593	-1152.03330234402	914.5496451163523	799.9400021808173	-1297.730664308465	982.0135723590404	683.3143278579823	-1200.52157749916	949.0393674969494	513.988880019896	-1252.922493729002	895.2030419646899	457.4706690239483	-1315.937986309485	953.2090612426566	320.3981866743819	-1255.233744656201	909.6133867389938	253.5927108014945	-1316.895055283529	925.8029259664268	123.2999883032694	-1294.193977112168	927.8753041764801	121.8682088400935	-1440.9451436688	958.3337499983026	83.05620870806865	-1415.71841224597	881.3105794409501	65.11780172221741	-1246.465089594465	
314	141.248	812.4014675836886	1520.304387904152	-1117.161526261811	785.6081617453639	1293.568714314263	-1052.087439986895	845.1404135003328	1426.793813937505	-1252.123009768208	667.6825626318426	1508.399688902804	-1211.712263010318	990.5174060101025	1477.766521025778	-1161.331350634831	709.9322297942083	983.6483462438806	-1250.375578842306	937.0289467488674	1017.823558660061	-1223.040655456611	779.339677900237	1082.124257387623	-1046.598277907691	815.3368078222004	1083.563672749094	-1042.043549511625	654.9752722091448	1078.104277532851	-1206.700948246658	970.5679500572409	1108.196878475832	-1146.938998688782	629.8888993518475	932.0470677620401	-1164.728646817891	725.3003760021973	723.0859122162605	-1192.8949324103	658.5019267035383	679.1014213125547	-1035.841478007474	683.4251615107049	525.642462390779	-964.924636803918	737.3476912124779	440.2507809594204	-978.7055113576635	683.3507994470104	377.3499750335507	-828.8830589332521	729.8363628707211	274.952946028652	-837.8943150555244	703.808047799921	212.2905407706263	-733.804612685761	700.4585615814411	71.95150363372008	-783.2498257405792	676.9243066575117	78.61895935173247	-742.3735457941198	752.4208420762718	239.3902333594145	-676.6672533614052	1021.502546308705	970.9895376495347	-1152.757460021639	914.4451521772493	798.1802280838259	-1296.563978027704	983.5160354831312	682.9696537554782	-1200.645348719437	949.6663723584264	513.2724110194762	-1253.240306314067	895.4721443105641	457.4344002817446	-1316.497779922626	953.636511401416	319.5776855931582	-1257.501149110622	909.4479303209042	253.5018984746421	-1319.510058684942	925.6865414110263	122.8624171299358	-1298.261448298073	926.0578864929853	122.7009687013723	-1445.148805779268	956.5997213522202	83.33250725386755	-1420.691965581365	881.5233142532204	64.3617443832744	-1250.71658551434	
315	141.252	813.1138281056658	1519.752678551395	-1117.374187564531	786.1822055986279	1293.165532416677	-1052.110311633742	846.0840400076864	1426.119248808089	-1252.070016169566	668.539409886645	1507.768453366441	-1212.087546326294	991.3241186764636	1477.072902613998	-1161.371463386556	710.5935954654611	984.2904771092791	-1250.601051294818	937.2031713602502	1017.204861149608	-1223.155577775434	779.9613398827917	1082.280741111849	-1046.69561373269	815.9429778865335	1083.622275302737	-1042.052093615878	655.8675167113954	1079.06734807418	-1206.804123121333	971.0647795301688	1107.68330269554	-1147.357644968112	630.1892871013814	932.9289310227618	-1165.152855505339	724.1128046041241	722.8735282765049	-1194.467436620726	658.8421835523557	678.5749332566413	-1037.175485844594	683.8698061034966	524.6316903294884	-967.1823203664301	736.9786423798818	438.513999427038	-979.9257610771791	683.2653858866099	378.8903262700872	-828.6288213966901	728.8105937625652	275.96128968818	-835.921455218186	702.5645245906729	215.7799449548253	-730.6795897116732	699.109702567148	73.56945611432546	-774.9894628284796	676.0035492147508	81.70571417179798	-734.2036348035549	751.6551621933498	244.9959059359357	-675.2854408458974	1022.007224660477	970.6983088622394	-1153.42514717994	914.3065162156765	796.1785912127883	-1295.355880621589	984.955814340934	682.4059532209742	-1201.025625689934	950.264537004399	512.418938779963	-1253.634417239325	895.7500975301771	457.1489428412849	-1316.979268315575	954.0669991914683	318.6757485809794	-1259.358497669258	909.3434461018518	253.1826764851423	-1321.576478906096	925.6434145595275	122.3170649204509	-1301.460040305671	924.4269901791691	122.9672557699328	-1448.422883417188	955.0513807359088	83.16712899286217	-1424.5830665221	881.7704663601409	63.69327170466931	-1253.955051114765	
316	141.256	813.8537107016364	1519.062384407952	-1117.584907907208	786.8307635555825	1292.616824584765	-1052.087570837881	846.9909926156886	1425.285309835048	-1252.02088787413	669.3642247641566	1506.970829073946	-1212.40568497388	992.1385106385276	1476.242612070664	-1161.455055579414	711.1921141658235	984.8460326722214	-1250.759178619668	937.380258769424	1016.350718571506	-1223.267229171375	780.6395495424463	1082.268776232846	-1046.766276912096	816.600727465616	1083.496757376824	-1042.037421327164	656.6889637202343	1079.90304001157	-1206.720834765098	971.6351642530836	1106.933437629522	-1147.82763163444	630.4798629428835	933.6932799454513	-1165.513601356267	723.0043934856881	722.5589968986476	-1196.171159303767	659.2312532281129	677.7131621751773	-1038.716120299837	684.3183819225712	523.3151792413851	-969.7834079086001	736.5797824714608	436.4953785149051	-981.4000854431296	683.1796335526859	380.3178355656778	-828.6423264905854	727.7523960885843	276.8746311505644	-834.1236068978277	701.3270980905286	219.3126053196638	-727.7041564934243	697.5887608575288	75.4107004299736	-766.8456440995592	674.9375271404641	85.03788657521534	-726.183335824736	750.9527539207858	250.5170089225225	-674.1322287827674	1022.481942759469	970.0995392502616	-1154.025307647088	914.1359668695877	793.964566666392	-1294.145051436932	986.2981048764767	681.6132457748276	-1201.649385353895	950.8245134712129	511.422703565259	-1254.093111090593	896.0265692368022	456.603005772581	-1317.377462417772	954.4947447747377	317.6804468445084	-1260.797291950956	909.2978152634895	252.6177584556379	-1323.093746132223	925.6721765919244	121.6459844656263	-1303.780805364164	923.0120537294797	122.6437866708641	-1450.763503091489	953.7222830799232	82.54757775969762	-1427.374111113917	882.0456868156646	63.10409816257808	-1256.167567469286	
